<svg id="Componente_1_1" data-name="Componente 1 – 1" xmlns="http://www.w3.org/2000/svg" width="181.42" height="42.216" viewBox="0 0 181.42 42.216">
  <path id="Caminho_1" data-name="Caminho 1" d="M595.875,416.233c-2.859,1.3-8.519,6.57-8.2,11.9s3.97,6.375,3.97,6.375c1.04.065,1.04-.585,1.04-.585s-1.885-2.145-1.367-7.285a11.847,11.847,0,0,1,4.491-7.937v23.874c0,5.008-.844,7.155-1.434,8.65,5.2-.065,5.532-9.561,5.532-9.561V419.355C599.91,415.97,598.22,416.233,595.875,416.233Z" transform="translate(-530.625 -416.081)" fill="#252525"/>
  <path id="Caminho_2" data-name="Caminho 2" d="M771.043,431.841l-.577-.054c-.079,1.264-1.1,3.525-1.9,3.5s-1.207-.369-1.552-2.263a48.465,48.465,0,0,1-.207-7.784c.05-2.684-.818-3.235-2.108-3.392s-1.709.789-2.1,1.841-2.26,6.469-2.26,6.469-.133-2.76-.158-4.971-.789-3.47-2.34-3.47-1.92,1.918-1.974,2.05-1.645,4.011-1.645,4.011v-4.32c0-2.012-3.045-1.718-3.045-1.718v9.915s-.588,3.88-2.258,3.88S747.2,431.8,747.2,431.8v-8c0-2.307-2.308-1.669-2.5-1.768s-.344.589-.491.981c-2.552-2.355-5.3-1.324-6.676,1.08s-1.72,6.431-1.083,9.376a2.036,2.036,0,0,1-1.813,1.865c-1.573,0-1.669-2.307-1.669-2.307-.491-3.681.49-7.461.588-9.032s-2.455-1.473-3.437-.786-1.372-.1-1.372-.1-.495-2.258-2.408-2.111-1.669,2.8-1.225,3.24.491,1.325.147,3.19-3.143,5.695-3.143,5.695.05-6.529.05-9.327-3.092-1.62-3.092-1.62l-.1,1.03c-3.336-3.731-5.891-.245-5.891-.245-3.482,4.173-2.11,9.72-2.01,10.359a2.153,2.153,0,0,1-2.064,2.209c-1.52,0-1.472-2.8-1.472-2.8v-9.229c0-2.012-2.9-1.571-2.9-1.571v1.227s-2.111-3.73-5.5-1.276-3,9.523-3.047,9.671-1.275,3.142-2.647,3.142-1.325-3.338-1.325-3.338V421.151h3.042a1.746,1.746,0,0,0,1.817-2.16h-4.566v-4.465a4.55,4.55,0,0,0-2.5-1.228,1.7,1.7,0,0,0-1.225.687V418.8h-3c-1.179,0-.982,2.257-.982,2.257h3.978v6.529a8.373,8.373,0,0,1-2.555,5.694c.641-3.14-2.354-5.449-4.074-6.429s-.193-2.111.394-3.093.735-2.209-1.229-2.209a3.423,3.423,0,0,0-3.437,2.9c-.294,1.523.835,2.5.688,3.093a76.486,76.486,0,0,1-4.272,6.578c-.684.934-.931-.933-.931-.933v-9.769a4.324,4.324,0,0,0-1.62-1.472,3.12,3.12,0,0,0-3.927,1.717c-1.179,2.161-3,5.941-3,5.941v-6.186c0-1.914-2.648-1.619-2.648-1.619v13.4s-.1,2.013,1.62,2.013l1.372-.05c.541-7.509,3.733-11.241,4.468-12.223s.587.148.587.148v8.344c0,2.9,1.77,5.105,4.372,2.651s5.2-7.855,5.2-7.855c.441,1.08,1.964,1.326,2.992,3.191a2.194,2.194,0,0,1-1.62,3.485c-1.422.05-1.225-1.324-2.111-1.276a1.453,1.453,0,0,0-.881,2.554c1.276,1.227,4.075.884,4.075.884,4.812,0,6.428-5.694,6.428-5.694.247,2.159.542,5.694,3.683,5.694s4.125-3.829,4.125-3.829,1.078,3.829,4.418,3.829a4.53,4.53,0,0,0,4.318-2.848,3.468,3.468,0,0,0,3.289,2.994c1.817,0,3.193-2.356,3.193-2.356a3.608,3.608,0,0,0,3.437,2.259,5.145,5.145,0,0,0,4.073-2.356l0,1.286s-1.773,2.1-4.024,4.359c-2.88,2.9-4.318,7.9,1.376,7.9s5.548-6.186,5.548-6.186a41.332,41.332,0,0,0,0-6.823c3.73-3.043,5.2-8.491,5.4-9.13s1.178-.885,1.178-.885h2.309a19.453,19.453,0,0,0-1.033,5.941c-.05,3.337,1.423,6.037,3.634,6.037s3.436-2.306,3.436-2.306.588,2.111,3.777,2.111,4.393-3.374,4.393-3.374.892,3.419,3.1,3.419,3.207-2.471,3.207-2.471a19.14,19.14,0,0,1,0,2.129h3.5v-3.891a14.7,14.7,0,0,1,1.975-7c.656-1.211.946-.106.946-.106s0,.106.079,4.629,1.262,5.523,2.315,5.523.946-.895,1.236-2.551a23.508,23.508,0,0,1,2.681-8.049v5.813c0,1.025-.1,6.022,3.5,6.022S771.043,431.841,771.043,431.841Zm-66.6-2.2c-.294,3.631-1.709,5.4-2.846,5.4s-2.336-2.569-2.16-5.646,1.386-5.449,2.526-5.449C703.611,423.949,704.761,425.762,704.446,429.644Zm14.432,0c-.294,3.631-1.709,5.4-2.848,5.4s-2.333-2.569-2.157-5.646,1.387-5.449,2.526-5.449C718.044,423.949,719.194,425.762,718.878,429.644Zm-2,16.684c-3.554.4-2.068-2.688-1.086-4.027a31.725,31.725,0,0,1,3.74-3.8S719.986,445.977,716.883,446.328Zm27.375-16.684c-.294,3.631-1.709,5.4-2.849,5.4s-2.333-2.569-2.157-5.646,1.387-5.449,2.522-5.449C743.423,423.949,744.573,425.762,744.258,429.644Z" transform="translate(-589.625 -406.081)" fill="#252525"/>
  <path id="Caminho_3" data-name="Caminho 3" d="M299.683,388.95a2.176,2.176,0,1,0,2.176,2.176A2.176,2.176,0,0,0,299.683,388.95Zm-1.76-5.869H282.744a10.151,10.151,0,0,0-10.119,10.182V407.9a10.151,10.151,0,0,0,10.119,10.182h15.178A10.151,10.151,0,0,0,308.042,407.9V393.263A10.151,10.151,0,0,0,297.923,383.081Zm6.81,23.5c0,5.457-2.462,8.4-8.244,8.4H284.121c-5.721,0-8.244-2.828-8.244-8.4V394.505c0-6.07,2.485-8.4,8.244-8.4h12.367c5.4,0,8.244,2.56,8.244,8.4Zm-14.5-15.079a9.045,9.045,0,1,0,9.044,9.045A9.045,9.045,0,0,0,290.236,391.5Zm0,14.929a5.885,5.885,0,1,1,5.884-5.885A5.884,5.884,0,0,1,290.236,406.43Z" transform="translate(-272.625 -383.081)" fill="#252525"/>
</svg>
